# xmcd
#
# Track frame offsets:
#	150
#	21255
#	38717
#	63485
#	81555
#	94690
#	125775
#	138567
#	174410
#	187460
#	218900
#	236862
#	266537
#	280105
#	303677
#
# Disc length: 4329 seconds
# Revision: 25
# Processed by: cddbd v1.5.2PL0 Copyright (c) Steve Scherf et al.
# Submitted via: dBpowerAMP V12.0
#
DISCID=ec10e70f
DTITLE=Eric Clapton - Blues
DYEAR=1999
DGENRE=Blues
TTITLE0=Before you Accuse Me (Take a Look at Yourself) V.1
TTITLE1=Mean Old World
TTITLE2=Ain't that Loving You
TTITLE3=The Sky is Crying
TTITLE4=Cryin'
TTITLE5=Have You Ever Loved a Woman?
TTITLE6=Alberta
TTITLE7=Early in the Morning
TTITLE8=Give me Strength
TTITLE9=Meet Me (Down at the Bottom)
TTITLE10=County Jail Blues
TTITLE11=Floating Bridge
TTITLE12=Blow Wind Blow
TTITLE13=To Make Somebody Happy
TTITLE14=Before you Accuse Me (Take a Look at Yourself) V.2
EXTD=
EXTT0=
EXTT1=
EXTT2=
EXTT3=
EXTT4=
EXTT5=
EXTT6=
EXTT7=
EXTT8=
EXTT9=
EXTT10=
EXTT11=
EXTT12=
EXTT13=
EXTT14=
PLAYORDER=
